<?xml version="1.0" standalone="no"?>
<!DOCTYPE svg PUBLIC "-//W3C//DTD SVG 20010904//EN"
 "http://www.w3.org/TR/2001/REC-SVG-20010904/DTD/svg10.dtd">
<svg version="1.0" xmlns="http://www.w3.org/2000/svg"
 width="225.000000pt" height="225.000000pt" viewBox="0 0 225.000000 225.000000"
 preserveAspectRatio="xMidYMid meet">

<g transform="translate(0.000000,225.000000) scale(0.100000,-0.100000)"
fill="#000000" stroke="none">
<path d="M0 1354 c0 -850 1 -896 17 -889 45 19 472 60 623 60 34 0 43 11 81
90 33 70 86 138 123 157 16 8 14 4 -6 -16 -16 -15 -28 -36 -28 -46 0 -29 -1
-32 -16 -69 -8 -18 -14 -52 -13 -75 0 -22 3 -35 6 -28 2 6 9 12 14 12 4 0 6
-7 3 -15 -4 -8 -1 -15 5 -15 6 0 11 -11 11 -25 0 -23 -3 -25 -27 -19 -16 4
-30 8 -32 10 -2 2 -13 -2 -25 -8 -11 -6 -18 -7 -14 -3 4 4 3 16 -2 26 -9 15
-5 18 22 22 33 4 32 4 -4 5 -33 2 -38 -1 -38 -20 0 -13 -3 -39 -6 -59 -5 -29
-2 -41 15 -58 27 -27 34 -26 68 4 15 14 33 29 40 35 8 7 15 0 23 -23 7 -23 22
-39 45 -50 28 -13 35 -22 35 -46 0 -23 -6 -31 -31 -40 -17 -6 -28 -15 -25 -20
9 -14 -10 -23 -62 -26 -26 -2 -60 -6 -77 -9 -16 -2 -53 -7 -82 -11 -38 -5 -56
-13 -70 -31 -18 -24 -92 -64 -119 -64 -8 0 -14 -5 -14 -10 0 -6 -3 -9 -7 -9
-25 4 -53 -3 -66 -16 -8 -8 -30 -16 -48 -19 -19 -2 -58 -9 -88 -15 -29 -6 -94
-11 -142 -11 -72 0 -89 -3 -89 -15 0 -13 132 -15 1126 -15 l1125 0 -3 22 c-3
23 -5 23 -133 20 -133 -4 -347 20 -353 39 -2 5 -15 9 -28 9 -13 0 -24 4 -24 8
0 5 -24 9 -52 10 -29 0 -54 6 -56 11 -2 6 -14 11 -27 11 -28 0 -44 19 -18 21
63 4 123 3 123 -2 0 -10 73 -17 95 -9 15 6 8 9 -30 15 -27 4 -81 15 -120 25
-74 19 -141 30 -216 34 -64 3 -123 50 -89 71 5 3 10 15 10 25 0 12 16 30 41
46 28 17 38 29 30 33 -7 5 -11 12 -10 17 1 5 1 16 0 24 -1 12 -4 12 -17 -2
-13 -13 -22 -14 -40 -6 -29 14 -30 18 -2 54 20 26 20 27 2 11 -11 -9 -27 -17
-35 -17 -15 0 -89 70 -89 84 0 4 10 22 22 39 l22 32 -25 -22 c-35 -32 -51 -29
-93 17 -40 44 -42 50 -23 69 10 11 8 12 -10 7 -17 -5 -26 -1 -39 19 -10 15
-13 30 -8 35 14 13 104 24 104 12 0 -5 11 -12 24 -14 17 -4 23 -1 19 9 -3 7
-1 13 3 13 5 1 26 3 48 6 27 4 41 2 47 -8 7 -11 9 -11 9 1 0 8 8 20 18 28 16
13 15 14 -5 10 -13 -3 -23 -1 -23 4 0 6 -7 6 -17 1 -10 -5 -24 -7 -32 -4 -8 2
-11 0 -8 -5 7 -10 -72 -8 -113 3 -14 4 -33 6 -42 5 -10 -1 -18 2 -18 7 0 4
-16 16 -35 25 -20 9 -38 24 -41 32 -4 8 -14 15 -23 15 -13 0 -14 2 -2 9 12 8
12 12 2 25 -7 9 -17 13 -22 10 -5 -3 -9 1 -9 8 0 7 -11 23 -24 36 -21 20 -25
20 -30 5 -11 -29 -49 42 -41 77 7 33 20 45 57 54 l27 6 -6 -50 c-5 -44 -4 -50
11 -44 9 3 16 2 16 -4 0 -11 43 -7 113 9 65 15 67 26 4 24 -41 -2 -55 2 -65
17 -7 10 -17 16 -21 14 -4 -3 -8 7 -9 21 -1 14 -7 32 -12 38 -8 9 -1 23 23 49
19 20 31 36 27 36 -4 0 -21 -15 -37 -32 -45 -50 -67 -60 -81 -37 -21 32 -14
73 16 102 31 30 86 45 96 28 12 -18 24 -12 19 9 -6 23 28 40 84 40 25 0 34 4
30 13 -3 7 1 21 9 32 8 10 14 14 14 8 0 -7 -4 -14 -10 -18 -5 -3 -7 -12 -4
-20 4 -10 17 -2 45 28 30 33 37 37 32 19 -3 -12 -9 -25 -14 -28 -19 -11 -9
-25 10 -14 28 14 36 12 21 -5 -11 -13 -8 -15 21 -15 59 -1 113 -48 130 -113
29 -113 56 -207 61 -212 3 -4 2 -18 -3 -33 -5 -15 -11 -44 -14 -65 -3 -21 -19
-52 -35 -71 l-30 -33 50 -47 c27 -25 63 -49 79 -52 16 -4 32 -13 35 -21 3 -8
11 -11 17 -7 8 4 9 3 5 -5 -4 -6 -12 -9 -17 -6 -5 4 -9 2 -9 -3 0 -18 -44 -21
-73 -7 -28 14 -29 14 -23 -8 4 -12 14 -50 23 -84 9 -35 20 -63 24 -63 5 0 9 5
9 12 0 9 3 9 12 0 7 -7 30 -12 53 -12 53 -1 178 -23 345 -60 186 -42 184 -42
196 -51 6 -5 40 -18 76 -29 37 -11 69 -26 71 -33 3 -6 6 421 6 951 l1 962
-1125 0 -1125 0 0 -896z m980 721 c14 -7 42 -27 64 -44 23 -18 50 -31 67 -31
22 0 27 -4 22 -16 -3 -8 3 -25 14 -37 34 -38 35 -46 7 -82 l-26 -35 -25 50
c-33 67 -83 118 -121 126 -17 4 -30 10 -27 14 8 13 -70 60 -101 61 -29 1 -29
1 -4 9 30 10 96 2 130 -15z m535 -3 c-3 -3 -11 0 -18 7 -9 10 -8 11 6 5 10 -3
15 -9 12 -12z m-135 -15 c0 -7 4 -18 9 -26 7 -11 17 -8 50 18 23 18 41 30 41
27 0 -3 -16 -27 -36 -52 -33 -44 -74 -115 -74 -130 0 -7 37 -1 97 17 36 11 45
11 55 0 11 -11 11 -13 0 -7 -21 13 -77 -13 -114 -52 -56 -59 -127 -182 -127
-222 0 -24 1 -23 30 12 17 20 30 40 29 43 -1 7 83 76 148 122 57 40 129 57
183 43 21 -6 39 -15 39 -21 0 -6 -7 -6 -19 1 -64 33 -175 -20 -290 -138 -46
-47 -78 -88 -72 -90 6 -2 30 6 54 17 62 30 98 35 137 18 l35 -14 -51 5 c-38 3
-63 -1 -102 -18 -61 -26 -62 -37 -3 -19 57 17 109 0 155 -51 44 -49 48 -75 5
-34 -26 25 -38 29 -87 29 -46 -1 -74 -9 -142 -42 -47 -23 -86 -40 -88 -39 -1
2 16 24 39 50 40 46 47 73 12 45 -17 -13 -17 -13 -3 5 22 28 -11 49 -72 43
-45 -4 -48 -3 -44 19 5 25 -17 50 -34 39 -7 -4 -20 -21 -30 -38 l-19 -30 -7
27 c-3 14 -17 35 -30 45 -31 25 -30 33 2 21 14 -6 45 -10 69 -10 l44 0 11 58
c7 31 23 73 36 93 31 45 128 137 157 149 18 7 15 9 -21 9 -24 1 -61 -8 -84
-19 -23 -11 -43 -18 -45 -17 -7 7 72 90 106 112 36 23 51 24 51 2z m-488 -55
c20 -8 29 -20 33 -49 4 -21 15 -72 25 -113 10 -41 13 -67 6 -56 -6 10 -21 31
-33 46 -13 15 -23 32 -23 37 0 5 -20 24 -45 42 -25 18 -43 36 -40 41 3 4 -5 6
-17 3 -19 -4 -20 -3 -8 6 13 9 13 11 -2 11 -10 0 -18 4 -18 8 0 11 -63 31
-110 35 -19 2 19 3 85 2 66 -1 132 -7 147 -13z m-210 -109 c54 -20 129 -76
159 -117 16 -22 6 -15 -32 20 -59 55 -99 80 -164 100 -22 7 -32 13 -23 13 10
1 37 -6 60 -16z m-62 -156 c0 -2 -15 -14 -32 -27 l-33 -23 24 26 c21 23 41 35
41 24z m270 -53 c0 -2 -9 0 -20 6 -11 6 -20 13 -20 16 0 2 9 0 20 -6 11 -6 20
-13 20 -16z m-103 -100 c-3 -3 -12 -4 -19 -1 -8 3 -5 6 6 6 11 1 17 -2 13 -5z
m467 -49 c-4 -8 -11 -15 -16 -15 -5 0 -8 -6 -5 -12 2 -7 -4 -25 -14 -39 -10
-14 -16 -28 -13 -31 2 -3 -2 -11 -11 -18 -21 -18 -28 -8 -15 25 8 22 8 26 -4
22 -7 -3 -24 6 -36 20 l-22 26 38 -6 c22 -3 48 -8 59 -12 16 -5 17 -5 5 3 -12
9 -11 14 9 31 29 25 32 26 25 6z m205 -80 c33 -16 41 -33 40 -78 l-1 -32 -12
28 c-17 39 -32 47 -96 47 -38 0 -50 3 -39 10 8 5 40 5 72 1 31 -4 54 -4 51 0
-8 14 -74 28 -112 23 -31 -3 -33 -2 -12 5 39 14 78 12 109 -4z m-21 -153 c-2
-14 -10 -27 -18 -29 -11 -3 -11 -2 -3 4 13 9 14 53 1 53 -4 0 -8 5 -8 11 0 8
5 7 16 -1 8 -7 14 -25 12 -38z m-651 -24 c-3 -8 -6 -5 -6 6 -1 11 2 17 5 13 3
-3 4 -12 1 -19z m113 18 c0 -3 -4 -8 -10 -11 -5 -3 -10 -1 -10 4 0 6 5 11 10
11 6 0 10 -2 10 -4z m-34 -29 c-2 -12 -8 -32 -15 -45 -8 -15 -8 -21 -1 -20 6
2 17 -12 25 -29 14 -33 14 -33 -31 -64 -24 -16 -42 -35 -38 -40 3 -6 12 -3 20
8 7 10 14 13 14 7 0 -6 -6 -17 -14 -23 -15 -12 -27 -101 -14 -101 5 0 8 11 8
24 0 34 18 42 26 12 3 -13 12 -27 19 -30 18 -6 17 -76 -1 -83 -8 -3 -14 -13
-15 -22 0 -9 -7 2 -15 24 -7 22 -12 29 -9 16 3 -21 2 -23 -11 -9 -12 12 -29
109 -25 143 1 6 2 26 3 47 2 20 5 35 9 32 3 -2 6 10 7 25 1 43 22 114 39 134
20 22 22 22 19 -6z m71 -369 c-3 -8 -6 -5 -6 6 -1 11 2 17 5 13 3 -3 4 -12 1
-19z m669 -83 c5 -12 10 -13 20 -4 20 16 39 5 58 -32 25 -51 21 -59 -29 -59
-29 0 -47 -5 -52 -15 -7 -13 -13 -13 -36 -3 -33 16 -34 32 -5 52 17 12 20 18
10 28 -7 7 -12 20 -12 30 0 22 38 25 46 3z m-674 -79 c-9 -18 -11 -16 -11 19
0 33 1 37 10 21 8 -12 8 -25 1 -40z m-23 7 c-2 -10 2 -28 9 -40 12 -22 2 -40
-16 -29 -5 3 -15 -6 -22 -20 -10 -18 -16 -21 -22 -12 -12 20 -10 40 4 32 7 -5
9 -2 5 8 -3 9 -3 19 1 23 4 4 7 10 8 13 2 18 17 42 26 42 5 0 8 -8 7 -17z
m170 -78 c0 -5 -13 -21 -30 -33 -24 -20 -32 -22 -45 -11 -8 7 -13 18 -10 26 3
8 2 12 -3 8 -5 -3 -11 1 -14 7 -3 8 -9 3 -15 -12 l-10 -25 -7 29 c-7 26 -3 34
30 64 l38 35 34 -39 c18 -21 33 -43 32 -49z m-129 -60 c19 -35 22 -47 12 -57
-9 -9 -12 -9 -12 1 0 7 -4 10 -9 7 -5 -4 -11 -1 -13 5 -3 8 -9 6 -20 -4 -15
-15 -16 -15 -21 4 -3 12 -10 18 -16 14 -16 -9 -14 -1 10 39 12 20 26 36 33 36
6 0 22 -20 36 -45z m204 -15 c38 -40 39 -40 20 -61 -10 -12 -31 -30 -46 -41
-25 -17 -27 -17 -21 -2 5 13 3 15 -7 9 -9 -5 -11 -4 -6 3 4 7 -2 21 -12 33
-13 13 -22 17 -27 10 -9 -16 -25 -13 -25 5 0 8 -4 12 -10 9 -19 -12 3 30 33
62 35 37 42 35 101 -27z m-134 -97 c14 -21 28 -43 32 -49 5 -8 -1 -10 -20 -6
-44 8 -82 58 -59 81 16 16 20 14 47 -26z m228 -12 c45 -43 46 -61 6 -80 -19
-8 -24 -8 -18 0 5 9 0 10 -14 7 -12 -4 -24 -2 -27 3 -3 5 -22 16 -41 25 l-35
17 32 33 c18 19 38 34 44 34 7 0 30 -18 53 -39z m-268 -45 c0 -3 -4 -8 -10
-11 -5 -3 -10 -1 -10 4 0 6 5 11 10 11 6 0 10 -2 10 -4z m344 -43 c8 -20 9
-19 -37 -26 l-38 -6 21 29 c21 30 44 31 54 3z m-112 -98 c11 -15 10 -27 -2
-20 -5 3 -10 1 -10 -4 0 -16 -161 -6 -171 10 -4 7 -5 17 -2 21 7 12 176 5 185
-7z m-273 -64 c6 -10 8 -21 5 -23 -8 -9 -54 4 -48 13 3 5 -1 9 -8 9 -9 0 -9 3
2 10 23 15 38 12 49 -9z"/>
<path d="M805 1983 c17 -8 50 -32 75 -51 25 -19 39 -29 33 -22 -7 8 -13 20
-13 28 0 7 -7 20 -15 28 -9 10 -15 11 -15 4 0 -6 -12 -2 -26 9 -15 12 -36 21
-48 21 -18 -1 -17 -3 9 -17z"/>
<path d="M840 923 c1 -18 18 -35 24 -24 4 6 2 11 -4 11 -6 0 -8 5 -5 10 3 6 1
10 -4 10 -6 0 -11 -3 -11 -7z"/>
<path d="M1038 1233 c6 -2 18 -2 25 0 6 3 1 5 -13 5 -14 0 -19 -2 -12 -5z"/>
<path d="M1224 1184 c-6 -22 -10 -24 -35 -19 -18 4 -29 2 -29 -4 0 -6 11 -11
24 -11 19 0 26 -7 31 -32 12 -54 41 -78 94 -77 l46 1 -39 8 c-45 9 -87 49 -85
83 1 20 2 20 8 -3 4 -14 19 -31 33 -39 23 -13 29 -13 52 2 31 21 34 57 6 82
-19 17 -20 17 -20 1 0 -10 -5 -14 -11 -11 -6 4 -8 13 -5 21 8 22 -21 17 -45
-7 l-22 -22 7 27 c3 14 4 26 1 26 -2 0 -8 -11 -11 -26z"/>
<path d="M1016 1185 c-25 -25 -29 -54 -12 -80 31 -47 116 -24 116 31 0 22 -20
57 -20 36 0 -8 -6 -12 -12 -9 -7 2 -12 11 -10 21 4 21 -41 22 -62 1z"/>
<path d="M1381 1144 c0 -11 3 -14 6 -6 3 7 2 16 -1 19 -3 4 -6 -2 -5 -13z"/>
<path d="M1134 1104 c-6 -19 -8 -34 -3 -34 8 0 24 59 17 65 -2 2 -8 -12 -14
-31z"/>
<path d="M1385 1109 c-4 -6 -5 -12 -2 -15 2 -3 7 2 10 11 7 17 1 20 -8 4z"/>
<path d="M1264 1015 c10 -26 -5 -44 -40 -51 -44 -8 -116 3 -140 21 -17 13 -17
16 -4 25 13 9 13 10 0 10 -8 0 -22 -5 -30 -10 -10 -6 -11 -10 -2 -10 7 0 12
-13 12 -30 0 -35 23 -96 47 -122 12 -13 31 -18 74 -18 52 0 60 3 76 26 9 15
19 53 21 86 4 56 6 60 28 55 32 -6 21 9 -17 22 -26 9 -30 8 -25 -4z m-54 -75
c-20 -13 -67 -13 -75 0 -4 6 12 10 42 10 35 0 44 -3 33 -10z m-33 -75 c3 -9 3
-18 0 -21 -8 -8 -57 7 -57 18 0 5 4 7 9 3 5 -3 12 -1 16 5 9 15 25 12 32 -5z"/>
<path d="M1267 670 c3 -11 9 -20 13 -20 5 0 6 9 3 20 -3 11 -9 20 -13 20 -5 0
-6 -9 -3 -20z"/>
<path d="M1429 442 c-3 -20 -2 -29 4 -23 5 5 7 19 5 32 -3 20 -5 19 -9 -9z"/>
<path d="M0 320 c0 -50 0 -50 28 -44 15 3 43 13 62 22 19 8 50 15 68 15 17 -1
35 3 38 8 3 5 -10 9 -29 9 -18 0 -37 3 -41 7 -7 8 -92 32 -113 33 -9 0 -13
-16 -13 -50z"/>
</g>
</svg>
