<?xml version="1.0" standalone="no"?>
<!DOCTYPE svg PUBLIC "-//W3C//DTD SVG 20010904//EN"
 "http://www.w3.org/TR/2001/REC-SVG-20010904/DTD/svg10.dtd">
<svg version="1.0" xmlns="http://www.w3.org/2000/svg"
 width="920.000000pt" height="802.000000pt" viewBox="0 0 920.000000 802.000000"
 preserveAspectRatio="xMidYMid meet">

<g transform="translate(0.000000,802.000000) scale(0.100000,-0.100000)"
fill="#000000" stroke="none">
<path d="M3846 7832 c-3 -6 21 -59 53 -119 122 -220 201 -494 226 -783 6 -68
12 -220 9 -220 -1 0 -39 39 -85 86 -151 154 -336 254 -569 306 -96 21 -128 23
-380 23 -289 0 -353 -6 -550 -51 -126 -29 -170 -43 -170 -53 0 -4 46 -39 103
-76 225 -150 449 -393 645 -701 69 -109 178 -304 169 -304 -2 0 -39 9 -82 20
-60 15 -111 20 -218 20 -122 0 -154 -4 -266 -31 -191 -48 -312 -101 -536 -236
-148 -89 -354 -260 -341 -281 4 -7 18 -12 30 -12 42 0 212 -49 353 -101 268
-99 547 -259 862 -490 77 -57 141 -107 141 -110 0 -3 -33 -9 -73 -12 -115 -10
-274 -44 -405 -86 -144 -47 -356 -145 -350 -163 2 -6 22 -17 44 -24 21 -7 84
-27 139 -44 55 -17 172 -58 260 -90 88 -33 211 -75 273 -94 171 -53 278 -129
326 -230 42 -88 42 -88 -20 -120 -30 -16 -75 -52 -100 -80 -42 -48 -73 -111
-60 -123 3 -3 36 0 73 7 183 35 419 17 560 -41 66 -28 74 -34 68 -53 -11 -38
-32 -120 -45 -179 -10 -43 -19 -61 -34 -67 -81 -31 -269 -129 -429 -224 -74
-43 -80 -45 -106 -32 -65 34 -141 26 -192 -20 -13 -11 -22 -12 -45 -4 -20 8
-42 8 -79 -1 -53 -13 -84 -32 -182 -117 -62 -53 -63 -54 -88 -38 -14 9 -45 16
-74 16 -43 0 -53 -4 -76 -31 -14 -18 -28 -44 -31 -59 -5 -24 -16 -30 -138 -68
-177 -55 -427 -168 -674 -305 -270 -149 -261 -140 -268 -252 l-6 -90 -48 -50
c-104 -108 -244 -352 -375 -650 -26 -60 -70 -138 -96 -173 -39 -51 -49 -73
-55 -118 -10 -80 2 -140 38 -198 31 -50 32 -53 33 -186 1 -74 7 -148 14 -163
9 -24 8 -34 -14 -70 -13 -23 -36 -73 -50 -111 -32 -86 -85 -299 -85 -343 l0
-33 3850 0 3850 0 0 28 c0 39 -35 176 -64 253 -14 37 -48 105 -75 152 -28 47
-51 90 -51 95 0 6 13 52 30 102 17 50 30 107 30 125 0 81 12 127 37 138 50 23
103 180 103 307 0 48 -4 64 -26 89 -14 17 -36 31 -47 31 -38 0 -44 13 -50 103
-8 112 -35 166 -134 264 -81 81 -81 80 -28 180 52 99 41 184 -28 219 -17 9
-39 22 -47 29 -57 49 -724 385 -824 415 -90 28 -129 62 -159 137 -54 137 -129
164 -217 78 l-36 -35 -75 62 c-40 34 -98 85 -127 112 -104 98 -150 113 -231
72 -58 -30 -61 -31 -61 -13 0 21 -74 87 -109 97 -53 15 -121 1 -158 -32 l-22
-21 -52 47 c-65 58 -177 133 -339 225 l-125 72 -12 57 c-11 55 -16 109 -14
163 1 21 9 28 49 41 26 9 92 32 147 51 138 49 477 105 765 127 80 6 155 13
168 16 22 4 32 24 11 24 -19 0 -291 120 -371 164 l-79 43 26 25 c30 30 179
119 280 168 104 49 290 122 565 220 134 48 246 92 248 98 4 14 -95 45 -278 87
-142 33 -222 47 -430 75 -104 15 -148 26 -130 33 8 3 74 28 145 56 72 27 178
71 236 98 179 82 609 304 609 313 0 18 -174 97 -290 134 -63 19 -146 40 -185
46 -213 31 -237 33 -465 27 -129 -4 -278 -13 -330 -22 -144 -22 -136 -26 -132
46 12 204 -74 452 -224 652 -126 168 -295 281 -534 358 l-114 36 -14 54 c-71
289 -281 774 -385 889 -105 116 -314 236 -551 319 -184 64 -533 130 -550 103z"/>
</g>
</svg>
